<svg width="1024" height="231" viewBox="0 0 1024 231" fill="none" xmlns="http://www.w3.org/2000/svg">
<path d="M261 173C271.95 172.31 282.82 169.31 292.31 163.81C294.28 162.67 306.15 153.21 307 154.01C280.84 197.22 217.24 200.17 187.17 159.33C160.69 123.36 171.89 73.52 210.51 52.01C212.14 53.02 210.16 54.22 209.51 55.01C203.59 62.18 198.73 67.58 194.83 76.33C184.51 99.47 187.74 127.14 203.5 146.98C203.99 146.98 207.05 142.04 207.54 141.04C213.7 128.41 208.14 96.21 209.98 80.48C210.18 78.81 210.42 77.37 211.54 76.04L249.05 44.55C250.08 43.79 251.27 43.09 252.58 43.01C254.94 42.87 268.12 49.46 271.74 50.77C281.33 54.24 291.17 57.32 301 60.02C299.53 62.37 286.41 76.74 285.28 77.03C279.76 78.44 266.88 70.44 261 69.01V113.01L266.02 113.59V118.02H261V173.02V173ZM241 62C237.62 60.7 232 67.33 232 69.5V113H241V62ZM247 113L255.57 112.06L255.87 67.63L247.52 63.98C244.78 80.23 247.48 96.45 247 113ZM241 118L231.14 118.14C229.43 123.4 227.13 128.86 223.83 133.33C220.93 137.27 207.64 148.09 207.95 151.45C208.37 156.13 233 170.18 238.94 170.6L241.01 169.5V118H241ZM256 171.5V119.5C253.87 116.89 250.01 118.27 247 118C246.48 124.84 247.22 131.72 247.04 138.55C246.82 147.23 245.53 156.72 245.91 165.5C246.26 173.57 254.93 174.96 256 171.5Z" fill="white"/>
<path d="M823.01 101L825.07 100.37C827.31 94.19 833.43 89.57 839.95 88.44C873.34 82.63 858.57 127.76 862.03 146.47C862.8 150.64 866.19 150.36 868.99 151.56C870.54 152.22 871.47 151.39 871 154H842.01C841.34 150.4 846.45 151.98 848.52 150.02C849.31 149.27 850.56 145.53 850.77 144.27C852.17 135.75 851.63 115.63 851.06 106.46C850.77 101.76 850.62 94.73 845.75 92.77C834.33 88.18 825.32 100.58 824.12 110.62C823.41 116.6 823.03 141.14 824.22 146.29C825.19 150.48 828 150.11 831 151.55C832.46 152.25 833.49 151.36 833 154H805.01C804.5 150.72 808.78 151.85 811.05 149.55C812.1 148.48 812.72 146.92 812.95 145.45C814.28 136.82 813.86 111.7 813.05 102.47C811.47 84.48 792.51 91.22 787.96 104.46C785.35 112.04 784.91 136.17 786.25 144.27C786.46 145.53 787.71 149.27 788.5 150.02C790.57 151.99 795.68 150.4 795.01 154H766.02C765.55 151.39 766.48 152.23 768.03 151.56C772.49 149.65 774.49 150.84 775.08 144.56C775.98 135.06 776.34 107.47 774.96 98.56C774.21 93.69 771.82 93.76 768.22 92.25C766.76 91.63 765.5 92.87 766.02 90L786.01 88.99L786.51 101.99C792.67 86 820.46 80.77 823.02 101H823.01Z" fill="white"/>
<path d="M457 150V167.5C457 170.36 461.15 173.02 463.73 173.76C466.06 174.43 469.77 172.67 469 176H438C437.59 172.61 441.54 174.55 443.97 172.47C445.15 171.46 445.72 169.95 445.93 168.44C444.49 146.96 448.06 122.58 446.04 101.45C445.82 99.1601 445.14 95.6201 443.46 94.0301C441.07 91.7601 436.48 93.3801 437 90.0001L456.99 88.9901L457.49 99.9901C461.73 93.7401 466.68 88.9201 474.6 88.1101C515.15 83.9601 504.89 169.22 465.02 154.47C461.69 153.24 460.13 150.81 456.99 150H457ZM469.73 92.2401C463.93 93.3101 458.18 101.06 457.23 106.74C456.15 113.22 456.06 136.94 456.94 143.55C458.06 151.91 470.79 155.4 477.91 151.42C490.39 144.43 490.01 114.88 486.51 102.98C483.84 93.9101 479.37 90.4501 469.73 92.2401Z" fill="white"/>
<path d="M691 152.01C692.44 153.44 690.91 153.82 689.52 154C684.92 154.58 680.55 153.23 676.5 153.2C674.2 153.18 664.22 155.05 663.01 153.99C662.7 150.26 667.14 151.65 669.08 149.57C670.02 148.56 670.72 145.85 670.92 144.41C672.13 135.65 671.9 112.57 671 103.51C669.25 85.9101 650.93 89.8301 645.51 102C642.33 109.13 641.81 137.31 643.07 145.44C643.3 146.91 643.92 148.48 644.97 149.54C647.24 151.84 651.52 150.71 651.01 153.99H622.02C621.51 151.16 622.7 152.35 624.21 151.74C631.1 148.99 631.48 149.89 632.05 141.54C632.69 132.11 633.31 108.31 631.77 99.7301C631.46 97.9801 630.74 96.2801 629.57 94.9301L622.02 90.0001L643.01 88.9901V100.99C647.39 96.2901 648.61 92.1201 655.22 89.7001C668.06 84.9901 680.37 89.1201 681.89 103.62C683.32 117.25 680.91 132.47 682.23 146.28C683.14 150.45 687.45 151.13 691.01 152.01H691Z" fill="white"/>
<path d="M722.76 88.2599C771.03 81.7799 766.13 170 717.45 154.05C691.3 145.48 692.53 92.3099 722.76 88.2599ZM725.76 90.1899C709.7 92.5699 709.83 124.52 712.23 136.27C715.96 154.54 734.86 161.19 741.47 141.98C745.79 129.41 747.13 87.0299 725.76 90.1999V90.1899Z" fill="white"/>
<path d="M582.76 88.2599C630.71 81.7299 626.17 170.02 577.45 154.05C551.42 145.52 552.31 92.4099 582.76 88.2599ZM585.76 90.1899C568.75 92.6999 569.76 127.32 573.06 139.44C577.54 155.92 595.38 158.99 601.48 141.98C606 129.36 606.9 87.0699 585.76 90.1899Z" fill="white"/>
<path d="M917 137.5C917.12 136.15 917.76 133.44 918.02 131.51C918.21 130.13 918.49 128.42 919.99 130C920.98 136.85 923.12 149.21 930.43 152.08C939.03 155.45 949.16 151.76 949.09 141.5C948.99 126.96 920.94 122.5 918.23 109.28C913.73 87.2901 937.21 82.5801 951.51 93.8101C954.58 92.8401 953.71 87.4301 957 88.0101V109.01H954.02C953.01 103.2 950.76 95.3401 945.35 92.1601C936.44 86.9201 925.23 90.9501 927.05 102.45C928.87 113.95 962.17 119.47 959.76 140.23C957.74 157.61 933.13 159.57 921.53 149.99C920.63 149.99 920.11 155.97 917 155.01C917.36 149.32 916.51 143.13 917 137.51V137.5Z" fill="white"/>
<path d="M399 90C399.58 93.88 393.66 90.74 390.98 93.47C389.58 94.9 389.88 96.62 390.06 98.39L406.01 139C406.78 139.59 408.15 136.76 408.5 136.01C411.02 130.7 421.57 103.81 421.96 99.39C422.5 93.21 419.4 93.94 415.19 92.26C413.66 91.65 412.5 92.85 412.99 90.01H431.99L425.79 97.31C414.64 118.2 409.15 151.31 397.19 170.71C393.56 176.6 381.95 180.14 377.52 174.97C367.91 163.76 395.73 156.47 386.99 175C394.25 175.88 401.36 157.78 400.8 152.77C393.3 136.09 387.57 117.25 379.51 100.97C378.71 99.35 376.78 95.3 375.68 94.31C373.78 92.6 369.36 93.1 369.98 90H398.98H399Z" fill="white"/>
<path d="M990 69V90H1008V92H990V146.5C990 150.69 997.69 151.59 1001.06 150.55C1005.78 149.08 1006.76 143.71 1008.56 140.01C1009.26 138.56 1008.35 137.51 1011 138.01C1011.88 158.95 981.31 162.68 979 142.51C977.26 127.3 980.42 109.19 978.86 93.65L977.36 92.15L965.99 91.5C965.33 89.18 968.13 90.06 969.48 90.01C972.33 89.9 975.27 90.48 978.06 89.58L979.1 71.12L989.99 69.02L990 69Z" fill="white"/>
<path d="M366.75 103.74C359.75 110.23 349.36 98.8699 358.98 92.4999C350.43 87.1999 342.57 99.9399 340.5 107C338.43 114.06 337.84 137.34 339.43 144.07C341.02 150.8 345.75 150.15 350.82 151.72C352.52 152.25 353.44 151.31 352.99 153.99H319C318.53 151.39 319.45 152.21 321 151.55C324.63 150.02 327.05 150.81 327.93 145.43C329.27 137.26 328.88 110.26 328.04 101.44C327.82 99.1499 327.14 95.6099 325.46 94.0199C323.07 91.7499 318.48 93.3699 319 89.9899L338.99 88.9799L339.49 101.98C344.67 94.2499 350.35 85.8699 361.07 88.4199C367.52 89.9499 371.79 99.0599 366.75 103.73V103.74Z" fill="white"/>
<path d="M530 90H549V92H530C531.01 107.7 528.65 125.02 529.97 140.53C530.63 148.35 533.11 153.35 542.06 150.54C547.14 148.94 547.29 142.32 549.5 138.99C550.63 137.3 551.92 138.7 551.82 140.28C550.99 153.55 533.71 161.54 523.96 151.53C521.49 149 519 142.83 519 139.49V91.99L506.99 91.48C506.32 89.16 509.14 90.05 510.48 89.99C513.31 89.87 516.17 90.07 518.99 89.99V70.99L529.99 68.99V89.99L530 90Z" fill="white"/>
<path d="M898 89V147.5C898 147.73 900.41 150.06 901.07 150.42C903.16 151.58 907.65 150.75 906.99 153.99H877C876.65 150.45 881.51 151.76 884.09 149.59C885.49 148.4 886.44 146.05 886.76 144.26C888.18 136.35 887.68 114.11 887.04 105.45C886.73 101.3 886.31 95.35 882.28 93.21C880.51 92.26 871.3 90.46 880.48 90C886.34 89.7 892.18 90.09 897.99 89H898Z" fill="white"/>
<path d="M121 115H97.0001C94.1301 132.52 107.4 147.08 120.99 130C117.58 144.13 96.6501 143.87 91.2601 131.24C86.5801 120.28 89.3201 100.53 103.5 98.9999C115.44 97.7199 121.2 103.02 121 115ZM114 114C114.7 94.7499 97.1401 95.9199 97.0001 114H114Z" fill="white"/>
<path d="M54 79V106C59.16 99.98 63.85 97.32 72.29 99.21C84.29 101.9 73.22 131.52 80.44 137.06C81.81 138.11 84.12 137.28 84.01 138.99H67.01C66.91 137.4 69.03 137.8 70.06 136.55C73.18 132.77 72.72 106.95 70.09 102.65C68.24 99.63 60.67 101.17 58.32 103.3C53.03 108.09 52.96 127.66 54.26 134.29C55.06 138.42 57.34 136.37 59.01 138.99H42.01C42.07 137.12 44.74 138.24 46.12 136.6C48.89 133.3 45.87 91.95 47.01 84.49L42.01 80L54 78.99V79Z" fill="white"/>
<path d="M20 101L13 100.01L19.06 99.56L20.05 88.05L26.48 86.98L27.43 99.06L38.99 100.01C39.22 101.75 36.72 100.95 35.51 101C32.68 101.12 29.82 100.92 27 101V134.5C27 136.28 31.44 138.47 34.05 137.59C38 136.26 37.26 132.05 39.99 130.01C40.38 138.19 31.45 143.7 24.46 139.04C23.06 138.11 20 132.77 20 131.5V101Z" fill="white"/>
<path d="M890.75 58.19C899.93 57.37 902.85 73.6 891.48 74.07C880.52 74.53 880.7 59.09 890.75 58.19Z" fill="white"/>
</svg>
