<svg width="1328" height="240" viewBox="0 0 1328 240" fill="none" xmlns="http://www.w3.org/2000/svg">
<path d="M192.3 47.71C242.6 83.93 238.72 160.63 185.96 192.71C145.07 217.58 91.53 204.06 66.69 163.56C56.05 146.23 51.26 123.08 55.03 103.27C67.1 39.86 139.3 9.52997 192.3 47.7V47.71ZM92.25 101H142.25C161.1 101 164.8 133.03 142.25 134.99C126.87 136.33 108.13 133.13 93.23 134.97C89.49 135.43 93.32 141.06 94.51 143.24C118.96 188.02 185.28 176.1 193.04 125.78C200.53 77.23 142.92 45.54 105.77 78.51C99.63 83.96 93.65 92.29 91.55 100.18L92.26 101H92.25Z" fill="white"/>
<path d="M537.75 72.5L581.51 130.5C581.92 130.78 583 130.02 583 129.75V72.5H602.75L603.5 73.25V164.5C597.91 164.99 590.83 165.53 585.23 165.02C584.23 164.93 583.33 164.94 582.51 164.24C568.29 146.43 555.45 127.33 541 109.73C540.57 109.2 540.33 107.59 539.51 108.83C539.62 109.34 539 110.01 539 110.25V164.5H518.5V73.25L519.25 72.5H537.75Z" fill="white"/>
<path d="M446.21 86.7899C469.11 113.24 456.34 156.25 422 164.25C387.67 172.25 357.16 147.37 361.01 111.76C365.46 70.6099 419.68 56.1499 446.21 86.7899ZM405.9 88.6499C372.65 92.2499 375.05 148 409.25 148C446.47 148 445.15 84.3999 405.9 88.6499Z" fill="white"/>
<path d="M344.79 96.2901C343.1 98.1501 341.21 99.8701 339.76 101.97C334.31 97.2401 329.06 91.9701 321.52 90.7301C304.03 87.8401 287.76 97.7601 287 116.26C285.88 143.6 313.52 155.63 334.23 138.99C335.34 138.1 337.84 134.63 338.99 135.23L350.52 146.73C352.07 148.82 347.21 152.78 345.5 154.26C331.27 166.55 311.92 169.07 294.51 162.24C262.99 149.87 256.02 107.23 279.72 84.0001C299.63 64.4701 333.44 66.4201 351.77 87.0301C352.18 87.7901 351.61 88.3901 351.21 88.9901C349.85 91.0301 346.57 94.3401 344.78 96.3101L344.79 96.2901Z" fill="white"/>
<path d="M823.75 73L877.99 140.76L879.5 140.25V73H892V164.5H882.25L827 96.25L826 96.75V164.5H813.5V73H823.75Z" fill="white"/>
<path d="M997 72.9999C1010.02 73.6399 1023.83 72.1599 1036.77 72.9799C1047.9 73.6899 1061.02 78.2299 1066.7 88.5499C1073.58 101.07 1071.48 120.01 1059.38 128.65C1057.07 130.3 1053.77 131.2 1051.81 132.55C1051.35 132.87 1050.97 133.08 1051 133.73L1072 164.5H1058.75L1038.49 135.76H1010.5C1010.26 135.87 1009.49 136.67 1009.49 136.75V164.5H996.99V72.9999H997ZM1009.5 84.2499V124.75L1010.25 125.5H1039.25C1041 125.5 1048.64 122.3 1050.37 121.12C1060.82 114.01 1061.03 95.1899 1050.62 88.0199C1042.89 82.6899 1023.61 82.2799 1014.23 82.9799C1013.22 83.0499 1009.81 83.2999 1009.5 84.2499Z" fill="white"/>
<path d="M789 73V82.75L737.99 83.24C737.25 83.91 737.09 84.8 736.99 85.74C736.38 91.11 736.43 104.34 736.97 109.78C737.04 110.52 737.36 112.5 738.25 112.5H783V122.5H737.5C737.27 123.42 737.05 124.26 736.98 125.23C736.46 131.86 736.38 144.22 736.98 150.78C737.1 152.08 737.17 153.11 738.25 154.01H790.25L791 154.76V163.76L790.25 164.51H724.5V73.01H789V73Z" fill="white"/>
<path d="M1174 164.5H1161.5L1151.95 142.3C1151.08 141.21 1148.23 141.08 1146.77 140.98C1135.57 140.22 1116.82 140.06 1105.73 140.98C1104.73 141.06 1102.82 141.28 1102.01 141.76C1099.65 143.17 1094.11 161.42 1091.24 164.49H1079.49L1119.95 73.7C1120.4 73.06 1121.03 73.06 1121.72 72.97C1123.68 72.7 1129.79 72.71 1131.77 72.97C1133.75 73.23 1134.32 75.88 1135.17 77.57C1147.44 101.97 1159.07 129.43 1170.17 154.57C1171.57 157.73 1173.28 161.26 1173.99 164.5H1174ZM1107.25 131.5H1146.25L1146.96 130.3L1126.74 86.48L1125.12 87.87L1106.57 130.35L1107.25 131.5Z" fill="white"/>
<path d="M693.84 77.67C695.37 78.54 699.2 81.48 700.51 82.74C701.82 84 703.23 84.76 702.03 86.77C701.53 87.61 695.95 92.85 695.17 92.92C690.99 89.39 687.1 86.25 681.78 84.47C650.85 74.08 623.04 103.12 635.65 133.6C643.24 151.96 666.18 159.2 683.99 151.73C688.54 149.82 691.44 147.1 695.17 144.07C696.22 144.16 702.44 150.31 702.53 151.27C702.7 153.06 696.52 157.61 694.87 158.62C663.24 178 619.97 156.68 620.19 118.33C620.41 79.98 662.22 59.77 693.84 77.67Z" fill="white"/>
<path d="M496 164.5C495.41 165.2 479.8 165.25 477.74 165.01C476.62 164.88 475.76 164.64 475 163.75V73.25L475.75 72.5H495.25L496 73.25V164.5Z" fill="white"/>
<path d="M982 73V83H951.75L951 83.75V163.75L950.25 164.5H938.75L938 163.75V83.75L937.25 83H907V73H982Z" fill="white"/>
<path d="M1203 73V153.25L1203.75 154H1251.75L1252.5 154.75V163.75L1251.75 164.5H1190.75L1190 163.75V73H1203Z" fill="white"/>
</svg>
