<svg width="185" height="43" viewBox="0 0 185 43" fill="none" xmlns="http://www.w3.org/2000/svg">
<path fill-rule="evenodd" clip-rule="evenodd" d="M42.6407 21.4913C42.6474 25.2767 41.5912 28.9915 39.587 32.2316L36.1541 27.5369C36.9762 25.6226 37.398 23.5671 37.3951 21.4913C37.395 20.4363 37.2868 19.3839 37.0723 18.3499C37.0516 18.2516 37.0308 18.1561 37.0072 18.0607L37.0072 18.026C36.9805 17.9218 36.9568 17.8148 36.9272 17.7106C36.8975 17.6065 36.8857 17.54 36.862 17.459C36.8087 17.2681 36.7553 17.0743 36.6932 16.8805L36.6398 16.7098L36.6132 16.6259C36.5539 16.4524 36.4918 16.2788 36.4266 16.1024C36.3822 15.9809 36.3348 15.8623 36.2874 15.7437C36.2399 15.6251 36.1896 15.5065 36.1392 15.3908C36.0889 15.275 36.0356 15.1564 35.9824 15.0407C35.8757 14.8094 35.7632 14.5808 35.6417 14.3552C35.5943 14.2569 35.541 14.1556 35.4847 14.066C35.4847 14.066 35.4699 14.0429 35.464 14.0284C35.458 14.0139 35.464 14.0284 35.464 14.0139C35.4077 13.9069 35.3455 13.7999 35.2804 13.6928C35.2151 13.5858 35.153 13.4759 35.0819 13.3659C34.9398 13.1346 34.7857 12.9031 34.6317 12.6776C33.7783 11.4454 32.7468 10.3405 31.569 9.39729C31.4772 9.32208 31.3825 9.24976 31.2877 9.17745C31.1929 9.10513 31.0626 9.00389 30.947 8.9229C30.8315 8.8419 30.7397 8.76959 30.636 8.70017C30.5323 8.63075 30.4435 8.56422 30.3399 8.50057C30.2273 8.42248 30.1118 8.35016 29.9933 8.27785L29.7504 8.12743L29.5105 7.98569C27.4516 6.80543 25.1506 6.08516 22.7729 5.8766C20.3951 5.66805 17.9996 5.97639 15.7583 6.77947C14.5735 7.21047 12.0915 8.65967 11.9937 8.7262L8.92808 4.54637L9.32497 4.29182C10.3626 3.60152 11.4608 3.00233 12.6068 2.50129C15.5257 1.23026 18.6994 0.615131 21.894 0.701239C25.0887 0.787347 28.2229 1.5725 31.0655 2.99883C31.2669 3.10007 31.4654 3.2042 31.6578 3.31123L31.9541 3.479L32.2325 3.64099L32.508 3.80298C32.7035 3.92157 32.8959 4.04306 33.1004 4.16744L33.3225 4.31207L33.6424 4.52902L33.9741 4.76621L34.1548 4.89638C34.2584 4.97448 34.3622 5.04969 34.451 5.13069C34.7206 5.33606 34.9842 5.54722 35.2419 5.76705C35.4996 5.98689 35.7513 6.20963 36 6.43814L36.3644 6.78815C36.4859 6.90675 36.6043 7.02534 36.7228 7.14683C36.9479 7.37535 37.1641 7.60965 37.3773 7.84974C37.4692 7.95098 37.558 8.05512 37.644 8.15636C37.7299 8.25759 37.8217 8.36462 37.9076 8.47165C37.9934 8.57868 38.0497 8.64232 38.1178 8.72909L38.3252 8.99232L38.5266 9.26134C38.6125 9.37414 38.6954 9.48695 38.7754 9.60266C38.8554 9.71836 38.9353 9.83407 39.0153 9.94977C39.0597 10.0105 39.0982 10.0713 39.1397 10.132C39.1811 10.1928 39.2256 10.2535 39.2611 10.3171L39.4537 10.6064C39.5455 10.7481 39.6344 10.8957 39.7202 11.0374C39.8062 11.1792 39.8447 11.2486 39.9039 11.3556C39.9632 11.4627 40.0283 11.5667 40.0876 11.6767L40.1024 11.7027C40.1071 11.7139 40.1131 11.7245 40.1201 11.7345C40.1241 11.7478 40.1301 11.7605 40.1379 11.7722C40.1447 11.7862 40.1526 11.7997 40.1615 11.8126L40.3275 12.1279L40.3512 12.1713C40.4133 12.2928 40.4755 12.4142 40.5348 12.5358C40.594 12.6573 40.6622 12.8048 40.7273 12.9378L40.908 13.2589C40.9583 13.3688 41.0028 13.4759 41.0502 13.5858L41.1657 13.8751C41.219 14.0043 41.2694 14.1344 41.3167 14.2656C41.3332 14.2992 41.347 14.3341 41.3582 14.3697C41.4145 14.5173 41.4678 14.6589 41.5181 14.8151C41.6307 15.1362 41.7344 15.4631 41.8321 15.7929C41.8765 15.9461 41.918 16.0995 41.9594 16.2556C41.9625 16.2671 41.9625 16.279 41.9594 16.2904C42.0484 16.6231 42.1254 16.9586 42.1994 17.297C42.2349 17.4648 42.2675 17.6326 42.2971 17.8003C42.2971 17.8003 42.2971 17.8437 42.2971 17.8698C42.3238 18.0144 42.3475 18.159 42.3712 18.3094C42.3949 18.4599 42.4185 18.642 42.4453 18.8041L42.4453 18.8301C42.4689 19.0036 42.4867 19.1801 42.5075 19.3536C42.54 19.6777 42.5667 20.0016 42.5845 20.3314C42.6289 20.7189 42.6407 21.1036 42.6407 21.4913Z" fill="white"/>
<path d="M36.9126 35.6917C35.9437 36.7049 34.873 37.6207 33.7167 38.4252C32.5604 39.2318 31.3252 39.9245 30.0291 40.4934C25.867 42.3104 21.2182 42.777 16.7647 41.8248C12.3112 40.8725 8.28728 38.5514 5.28344 35.2022C2.27962 31.8529 0.453897 27.6516 0.0741347 23.2148C-0.305627 18.7779 0.780555 14.3389 3.17334 10.5491C3.26812 10.3958 3.36882 10.2598 3.46953 10.0949C3.57023 9.93005 3.67094 9.80567 3.76572 9.64657C4.133 9.1259 4.52792 8.62452 4.95049 8.14241C5.03047 8.04696 5.1134 7.9515 5.20226 7.85315C5.24175 7.80686 5.28322 7.76059 5.32666 7.71431C5.41848 7.61017 5.51326 7.50893 5.62285 7.40769L5.73244 7.29488L8.80099 11.5238L8.83951 11.576C8.76841 11.6598 8.69733 11.7466 8.63217 11.8362C8.55894 11.9192 8.4907 12.006 8.4278 12.0966C6.12876 15.0954 5.00406 18.7985 5.25698 22.5365C5.50991 26.2745 7.12378 29.8008 9.80688 32.4781C12.49 35.1553 16.0653 36.8069 19.8865 37.1342C23.7078 37.4615 27.5229 36.443 30.6423 34.2627L25.8173 27.6646C27.0357 26.8106 27.9773 25.633 28.5304 24.2716C28.9924 23.1205 29.1596 21.8766 29.0175 20.648C28.8753 19.4194 28.4282 18.2432 27.7147 17.2218C27.0013 16.2003 26.0432 15.3645 24.9238 14.7869C23.8045 14.2093 22.5575 13.9073 21.2914 13.9074C21.1818 13.9074 21.0663 13.9074 20.9568 13.9074L20.9419 13.9074C19.4504 13.9738 18.0107 14.4622 16.7982 15.3132L13.7563 11.1449C14.9257 10.3262 16.2272 9.70435 17.6068 9.30524C18.8083 8.95569 20.0554 8.77836 21.3092 8.77879C21.7002 8.77879 22.0823 8.79614 22.4614 8.82796C25.7016 9.11173 28.7159 10.5687 30.912 12.9126C33.1082 15.2564 34.3273 18.3177 34.3298 21.4947C34.3298 24.1373 33.4849 26.7141 31.9129 28.8651L36.9126 35.6917Z" fill="white"/>
<path fill-rule="evenodd" clip-rule="evenodd" d="M25.8248 27.6477C24.9975 28.2406 24.0579 28.6672 23.0605 28.9027C22.0631 29.1382 21.0277 29.178 20.0145 29.0197C19.0012 28.8614 18.0302 28.5082 17.1578 27.9807C16.2854 27.453 15.529 26.7615 14.9323 25.9462C14.3356 25.1309 13.9108 24.208 13.6822 23.2311C13.4536 22.2541 13.4259 21.2425 13.6008 20.2551C13.7755 19.2676 14.1493 18.3239 14.7006 17.4786C15.2518 16.6333 15.9693 15.9033 16.8116 15.331L25.8248 27.6477Z" fill="white"/>
<path d="M50.9433 22.1885C50.9433 20.8902 51.224 19.7354 51.7854 18.7242C52.3468 17.7005 53.1267 16.9078 54.1248 16.346C55.1353 15.7718 56.2769 15.4847 57.5494 15.4847C59.1089 15.4847 60.4439 15.8966 61.5542 16.7206C62.6647 17.5445 63.4069 18.668 63.7812 20.0912L60.263 20.0912C60.001 19.5419 59.6267 19.1237 59.1402 18.8366C58.6661 18.5494 58.1233 18.4059 57.5119 18.4059C56.5263 18.4059 55.7279 18.7492 55.1166 19.4358C54.5052 20.1224 54.1996 21.04 54.1996 22.1885C54.1996 23.337 54.5052 24.2546 55.1166 24.9412C55.7279 25.6278 56.5263 25.9711 57.5119 25.9711C58.1233 25.9711 58.6661 25.8275 59.1402 25.5404C59.6267 25.2533 60.001 24.8351 60.263 24.2858L63.7812 24.2858C63.4069 25.7089 62.6647 26.8325 61.5542 27.6564C60.4439 28.4679 59.1089 28.8736 57.5494 28.8736C56.2769 28.8736 55.1353 28.5927 54.1248 28.0309C53.1267 27.4567 52.3468 26.664 51.7854 25.6528C51.224 24.6416 50.9433 23.4868 50.9433 22.1885Z" fill="white"/>
<path d="M68.9416 20.0726C69.3158 19.4984 69.7838 19.0489 70.3451 18.7244C70.9066 18.3873 71.5303 18.2188 72.2165 18.2188L72.2165 21.6081L71.337 21.6081C70.5385 21.6081 69.9397 21.7829 69.5404 22.1325C69.1411 22.4695 68.9416 23.0688 68.9416 23.9301L68.9416 28.7801L65.7415 28.7801L65.7415 18.3311L68.9416 18.3311L68.9416 20.0726Z" fill="white"/>
<path d="M84.4128 18.331L77.8628 33.7423L74.4194 33.7423L76.8148 28.4242L72.5667 18.331L76.1411 18.331L78.5553 24.8663L80.9506 18.331L84.4128 18.331Z" fill="white"/>
<path d="M88.7707 19.8103C89.0826 19.3235 89.5131 18.9302 90.0621 18.6306C90.611 18.331 91.2535 18.1812 91.9896 18.1812C92.8505 18.1812 93.6302 18.3996 94.3289 18.8366C95.0275 19.2735 95.5765 19.8977 95.9757 20.7092C96.3874 21.5206 96.5933 22.4631 96.5933 23.5368C96.5933 24.6104 96.3874 25.5591 95.9757 26.3831C95.5765 27.1945 95.0275 27.825 94.3289 28.2744C93.6302 28.7113 92.8505 28.9298 91.9896 28.9298C91.2659 28.9298 90.6234 28.78 90.0621 28.4804C89.5131 28.1808 89.0826 27.7938 88.7707 27.3194L88.7707 33.7611L85.5706 33.7611L85.5706 18.331L88.7707 18.331L88.7707 19.8103ZM93.337 23.5368C93.337 22.7378 93.1124 22.1136 92.6633 21.6642C92.2267 21.2023 91.6839 20.9713 91.0352 20.9713C90.3989 20.9713 89.8562 21.2023 89.407 21.6642C88.9704 22.1261 88.752 22.7565 88.752 23.5555C88.752 24.3545 88.9704 24.9849 89.407 25.4468C89.8562 25.9087 90.3989 26.1396 91.0352 26.1396C91.6715 26.1396 92.2142 25.9087 92.6633 25.4468C93.1124 24.9724 93.337 24.3357 93.337 23.5368Z" fill="white"/>
<path d="M104.091 26.0648L104.091 28.78L102.463 28.78C101.303 28.78 100.398 28.4991 99.7496 27.9374C99.1008 27.3631 98.7765 26.4331 98.7765 25.1472L98.7765 20.9901L97.5038 20.9901L97.5038 18.331L98.7765 18.331L98.7765 15.7843L101.977 15.7843L101.977 18.331L104.072 18.331L104.072 20.9901L101.977 20.9901L101.977 25.1847C101.977 25.4968 102.051 25.7215 102.201 25.8588C102.351 25.9961 102.6 26.0648 102.95 26.0648L104.091 26.0648Z" fill="white"/>
<path d="M110.627 28.9298C109.603 28.9298 108.681 28.7113 107.857 28.2744C107.046 27.8375 106.403 27.2133 105.93 26.4018C105.468 25.5904 105.237 24.6416 105.237 23.5555C105.237 22.4819 105.474 21.5393 105.948 20.7279C106.422 19.904 107.071 19.2735 107.894 18.8366C108.718 18.3996 109.641 18.1812 110.665 18.1812C111.687 18.1812 112.611 18.3996 113.434 18.8366C114.258 19.2735 114.906 19.904 115.38 20.7279C115.855 21.5393 116.091 22.4819 116.091 23.5555C116.091 24.6291 115.848 25.5779 115.362 26.4018C114.887 27.2133 114.233 27.8375 113.396 28.2744C112.574 28.7113 111.65 28.9298 110.627 28.9298ZM110.627 26.1584C111.238 26.1584 111.756 25.9337 112.18 25.4842C112.617 25.0348 112.835 24.3919 112.835 23.5555C112.835 22.7191 112.623 22.0761 112.199 21.6267C111.787 21.1773 111.275 20.9526 110.665 20.9526C110.04 20.9526 109.522 21.1773 109.111 21.6267C108.699 22.0637 108.493 22.7066 108.493 23.5555C108.493 24.3919 108.693 25.0348 109.093 25.4842C109.504 25.9337 110.015 26.1584 110.627 26.1584Z" fill="white"/>
<path d="M120.99 19.8103C121.302 19.3235 121.733 18.9302 122.282 18.6306C122.83 18.331 123.473 18.1812 124.21 18.1812C125.07 18.1812 125.851 18.3996 126.549 18.8366C127.248 19.2735 127.796 19.8977 128.195 20.7092C128.607 21.5206 128.813 22.4631 128.813 23.5368C128.813 24.6104 128.607 25.5591 128.195 26.3831C127.796 27.1945 127.248 27.825 126.549 28.2744C125.851 28.7113 125.07 28.9298 124.21 28.9298C123.486 28.9298 122.843 28.78 122.282 28.4804C121.733 28.1808 121.302 27.7938 120.99 27.3194L120.99 33.7611L117.79 33.7611L117.79 18.331L120.99 18.331L120.99 19.8103ZM125.557 23.5368C125.557 22.7378 125.332 22.1136 124.883 21.6642C124.446 21.2023 123.904 20.9713 123.255 20.9713C122.619 20.9713 122.076 21.2023 121.627 21.6642C121.19 22.1261 120.971 22.7565 120.971 23.5555C120.971 24.3545 121.19 24.9849 121.627 25.4468C122.076 25.9087 122.619 26.1396 123.255 26.1396C123.892 26.1396 124.434 25.9087 124.883 25.4468C125.332 24.9724 125.557 24.3357 125.557 23.5368Z" fill="white"/>
<path d="M135.245 28.9298C134.222 28.9298 133.299 28.7113 132.475 28.2744C131.665 27.8375 131.022 27.2133 130.548 26.4018C130.086 25.5904 129.855 24.6416 129.855 23.5555C129.855 22.4819 130.093 21.5393 130.567 20.7279C131.04 19.904 131.69 19.2735 132.512 18.8366C133.336 18.3996 134.259 18.1812 135.283 18.1812C136.305 18.1812 137.229 18.3996 138.052 18.8366C138.876 19.2735 139.524 19.904 139.999 20.7279C140.473 21.5393 140.71 22.4819 140.71 23.5555C140.71 24.6291 140.467 25.5779 139.98 26.4018C139.505 27.2133 138.851 27.8375 138.015 28.2744C137.192 28.7113 136.268 28.9298 135.245 28.9298ZM135.245 26.1584C135.856 26.1584 136.374 25.9337 136.799 25.4842C137.235 25.0348 137.453 24.3919 137.453 23.5555C137.453 22.7191 137.242 22.0761 136.817 21.6267C136.405 21.1773 135.893 20.9526 135.283 20.9526C134.659 20.9526 134.141 21.1773 133.73 21.6267C133.318 22.0637 133.112 22.7066 133.112 23.5555C133.112 24.3919 133.311 25.0348 133.711 25.4842C134.122 25.9337 134.634 26.1584 135.245 26.1584Z" fill="white"/>
<path d="M145.607 14.9228L145.607 28.7799L142.406 28.7799L142.406 14.9228L145.607 14.9228Z" fill="white"/>
<path d="M149.535 17.2449C148.973 17.2449 148.512 17.0826 148.151 16.758C147.801 16.421 147.626 16.009 147.626 15.5221C147.626 15.0228 147.801 14.6108 148.151 14.2862C148.512 13.9492 148.973 13.7806 149.535 13.7806C150.083 13.7806 150.533 13.9492 150.882 14.2862C151.244 14.6108 151.426 15.0228 151.426 15.5221C151.426 16.009 151.244 16.421 150.882 16.758C150.533 17.0826 150.083 17.2449 149.535 17.2449ZM151.126 18.331L151.126 28.78L147.926 28.78L147.926 18.331L151.126 18.331Z" fill="white"/>
<path d="M159.267 26.0648L159.267 28.78L157.639 28.78C156.478 28.78 155.574 28.4991 154.925 27.9374C154.276 27.3631 153.952 26.4331 153.952 25.1472L153.952 20.9901L152.68 20.9901L152.68 18.331L153.952 18.331L153.952 15.7843L157.152 15.7843L157.152 18.331L159.248 18.331L159.248 20.9901L157.152 20.9901L157.152 25.1847C157.152 25.4968 157.227 25.7215 157.377 25.8588C157.526 25.9961 157.775 26.0648 158.125 26.0648L159.267 26.0648Z" fill="white"/>
<path d="M160.411 23.5368C160.411 22.4631 160.611 21.5206 161.01 20.7092C161.422 19.8977 161.977 19.2735 162.676 18.8366C163.375 18.3996 164.154 18.1812 165.015 18.1812C165.751 18.1812 166.394 18.331 166.943 18.6306C167.504 18.9302 167.934 19.3235 168.234 19.8103L168.234 18.331L171.434 18.331L171.434 28.78L168.234 28.78L168.234 27.3006C167.922 27.7875 167.485 28.1808 166.924 28.4804C166.375 28.78 165.732 28.9298 164.997 28.9298C164.148 28.9298 163.375 28.7113 162.676 28.2744C161.977 27.825 161.422 27.1945 161.01 26.3831C160.611 25.5591 160.411 24.6104 160.411 23.5368ZM168.234 23.5555C168.234 22.7565 168.009 22.1261 167.56 21.6642C167.123 21.2023 166.587 20.9713 165.951 20.9713C165.314 20.9713 164.772 21.2023 164.322 21.6642C163.885 22.1136 163.667 22.7378 163.667 23.5368C163.667 24.3357 163.885 24.9724 164.322 25.4468C164.772 25.9087 165.314 26.1396 165.951 26.1396C166.587 26.1396 167.123 25.9087 167.56 25.4468C168.009 24.9849 168.234 24.3545 168.234 23.5555Z" fill="white"/>
<path d="M180.113 18.2188C181.336 18.2188 182.309 18.6183 183.033 19.4172C183.768 20.2037 184.137 21.2898 184.137 22.6755L184.137 28.7801L180.955 28.7801L180.955 23.1062C180.955 22.4071 180.774 21.8641 180.412 21.4771C180.051 21.0901 179.564 20.8966 178.953 20.8966C178.342 20.8966 177.855 21.0901 177.493 21.4771C177.131 21.8641 176.95 22.4071 176.95 23.1062L176.95 28.7801L173.75 28.7801L173.75 18.3311L176.95 18.3311L176.95 19.7168C177.275 19.2549 177.712 18.8929 178.261 18.6307C178.809 18.3561 179.427 18.2188 180.113 18.2188Z" fill="white"/>
</svg>
