<svg width="1059" height="169" viewBox="0 0 1059 169" fill="none" xmlns="http://www.w3.org/2000/svg">
<g clip-path="url(#clip0_1159_1405)">
<path d="M709.5 111V141.25L708.67 141.92C704.34 142.51 699.58 142.76 695.25 142C694.69 141.9 694.32 141.74 694 141.25V56.25L694.75 55.5H709C710.09 58.77 708.69 61.66 709 65C710.18 64.19 711.01 62.23 712 61.26C721.44 51.95 737.29 52.12 746.25 62C757.83 74.77 757.01 105.21 741.66 114.92C731.13 121.58 717.9 120.28 709.5 111.01V111ZM723.88 64.63C718.6 64.85 711.07 70.27 709.74 75.48C708.99 78.41 709.11 93.75 709.5 97.25C710.7 107.85 725.9 113.6 733.21 104.96C741.08 95.66 740.56 63.92 723.88 64.63Z" fill="white"/>
<path d="M26 28.5V64.5C27.72 64.28 28.41 62.19 29.74 60.99C37.92 53.58 51.44 52.65 60.24 59.52C69.59 66.82 72.08 83.03 70.37 94.12C66.65 118.14 40.93 128.35 25.01 108.51L23 117.51H11.5V28.5H26ZM38.88 64.63C33.39 65.43 26.48 72.11 25.98 77.73C25.48 83.35 25.81 92.18 26.16 97.68C26.41 101.58 30.92 106.32 34.31 107.93C60.49 120.43 63.57 61.03 38.88 64.62V64.63Z" fill="white"/>
<path d="M378.5 28.5V65C380.47 64.36 381.52 61.98 383.26 60.51C392.46 52.72 410.15 52.15 415.75 64.5C416.39 65.92 418 71.42 418 72.75V117.5H403V74.25C403 72.88 400.53 68.5 399.25 67.5C394.43 63.76 388.61 65.71 384.26 69.01C382.96 70 378.5 75.03 378.5 76.25V117.5H364V28.5H378.5Z" fill="white"/>
<path d="M255.5 28.5V82.75C255.5 82.84 256.3 83.64 256.49 83.5L279.25 56H293.25L293.75 57L274.5 77.24L294.99 117.5H279.24L264.24 87.51L255.49 96.75V117.5H241.24L240.49 116.75V28.5H255.49H255.5Z" fill="white"/>
<path d="M786.9 54.6501C830.78 49.9001 832.48 115.25 795.69 118.94C751.35 123.39 749.26 58.7201 786.9 54.6501ZM788.88 64.6301C770.7 67.2801 772.24 114.39 794.53 108.78C810.29 104.81 810.62 61.4701 788.88 64.6301Z" fill="white"/>
<path d="M928 89C928.09 98.37 932.31 110.58 943.75 109.5C950.61 108.86 953.47 103.35 956.35 97.97L968 100.5C964.26 120.15 936.99 124.29 922.99 112.75C905.42 98.27 909.22 62.82 932.11 55.85C948.35 50.9 965.26 58.4 969.35 75.39C970.29 79.31 971.55 85.55 969.25 88.99H928V89ZM928.5 80.5H954.75C955.62 79.64 955.06 76.72 954.78 75.47C953.31 68.95 948.89 63.63 941.73 63.98C932.83 64.41 929.07 72.53 928.5 80.5Z" fill="white"/>
<path d="M642.5 88.9999C640.5 109.1 662.25 118.71 670.32 97.9699L681.93 101.07C682.96 102.68 679.13 108.33 677.98 109.75C671.82 117.36 662.74 119.72 653.22 119.03C614.61 116.22 617.81 50.0799 660.68 54.5699C671.72 55.7299 684.49 67.2199 684.49 78.7599V88.2599L683.74 89.0099H642.49L642.5 88.9999ZM642.5 80.4999H668.75C669.95 80.4999 668.98 76.3799 668.77 75.4799C667.57 70.5199 664.18 64.7999 658.71 64.0399C648.57 62.6299 643.05 71.5299 642.5 80.4999Z" fill="white"/>
<path d="M575 117.5H561.25L560.5 116.75V75.75C560.5 75.19 559.34 71.51 559.01 70.74C555.35 62.2 543.52 65.65 538.74 71.49C538.36 71.95 536 75.5 536 75.75V117.5H521.5L521.75 56H534.75L535.5 56.75V66C537.96 63.39 539.17 61.1 542.34 59.09C551.28 53.4 565.01 52.6 571.72 62.03C578.33 71.32 574.79 100.95 574.98 113.27C575 114.75 575.79 115.94 575 117.5Z" fill="white"/>
<path d="M131.39 55.1401C154.38 52.3801 168.91 68.1601 166.94 90.6901C163.42 130.92 102.99 127.88 106.57 83.3201C107.69 69.4101 116.95 56.8801 131.4 55.1501L131.39 55.1401ZM135.4 64.1401C117.83 65.8101 118.09 102.58 131 108.25C156.3 119.36 159.59 61.8401 135.4 64.1401Z" fill="white"/>
<path d="M467.75 117.5C466.3 117.04 466.24 109.66 466 108C456.82 121.69 430.5 123.15 428.51 103.24C426.44 82.5499 450.63 81.0399 465.51 80.4999V71.7499C465.51 68.9499 462.06 65.6499 459.5 64.7599C451.29 61.9199 446.81 67.5399 443.17 73.9399C442.01 74.3199 431.75 71.3999 431.54 70.6899C431.29 69.8799 433.24 66.4199 433.8 65.5399C443.53 50.3199 477.59 50.8399 479.5 72.2599C480.64 85.0399 479.2 99.5699 480.02 112.74C480.12 114.31 481.43 116.47 480.26 117.5H467.76H467.75ZM465.5 100.25V89.2499C465.5 88.2499 459.87 88.8999 458.75 88.9999C450.79 89.7399 441.61 91.7399 442.47 101.77C443.14 109.5 452.58 110 458.15 106.9C459.28 106.27 465.28 101.02 465.5 100.25Z" fill="white"/>
<path d="M353 77H339.75C337.6 71.1 334.97 64.58 327.74 64.01C304.84 62.2 307.21 118.67 332.11 108.37C337.18 106.27 339.12 101.52 341.31 97.04L352.46 100.31C347.45 118.4 325.93 123.59 310.66 114.59C290.53 102.73 292.35 65.52 314.65 56.92C330.58 50.77 352.04 58 352.99 77.01L353 77Z" fill="white"/>
<path d="M216.75 76.9999C214.49 70.5699 211.69 64.0699 203.76 63.9699C184.17 63.7199 185.21 106.73 200.87 109.39C209.56 110.86 215.75 104.64 218.33 96.9699L229.46 99.5499C228.64 107.74 220.4 115.2 212.77 117.53C185.09 125.98 167.56 99.0499 175.86 74.1199C182.01 55.6499 206.69 48.6999 221.74 60.5199C225.6 63.5599 230.13 71.0499 230.31 75.9799C230.33 76.5999 230.23 76.6299 229.75 77.0099H216.75V76.9999Z" fill="white"/>
<path d="M893 55.5H907V66.5H893V101.25C893 101.57 894.43 104.47 894.78 104.97C897.8 109.22 903.53 108.07 908 107.5V117.5C897.44 119.89 882.72 119.05 878.61 107.14C878.38 106.48 877.5 103.63 877.5 103.25V66.5H868.5V56C871.2 54.68 876.66 56.74 878.44 54.19C881.05 50.44 879.26 41.94 881 37.5H892.25L893 38.25V55.5Z" fill="white"/>
<path d="M96 28.5H81.5V117.5H96V28.5Z" fill="white"/>
<path d="M1015 54.9999V67.9999C1007.61 65.8299 996.26 70.4499 995.48 78.7299C994.62 87.8799 995.38 99.1299 994.98 108.73C994.85 111.81 995.12 114.93 995 118H980V55.9999H995V65.4999L998.98 60.2299C1003.59 56.1099 1008.76 54.3399 1015 54.9999Z" fill="white"/>
<path d="M866.5 55.0001V68.0001C861.07 66.9701 855.5 67.8301 851.24 71.4901C845.37 76.5201 847.33 79.4001 847 86.2501C846.95 87.2201 846.52 88.1701 846.48 89.2301C846.17 98.8001 846.75 108.43 846.5 118H832.25L831.5 117.25V56.0001H846.5V65.5001C851.5 58.5201 857.31 53.7801 866.5 55.0001Z" fill="white"/>
<path d="M623.5 54.9999V67.9999C615.73 66.1399 607.05 69.4799 603.73 76.9799L603.28 117.03L588.5 118V55.4999H603V65.4999L608.24 59.4899C612.83 55.6699 617.52 54.4099 623.5 54.9999Z" fill="white"/>
<path d="M507.5 56V117.5H493.25L492.5 116.75V56.75L493.25 56H507.5Z" fill="white"/>
<path d="M1029.5 101V117.25L1028.75 118H1014.75L1014 117.25V101.25L1014.75 100.5H1028.25C1028.42 100.5 1029.01 101.16 1029.5 101Z" fill="white"/>
<path d="M501.68 25.81C505.08 28.44 507.79 31.83 510.46 35.18L499.75 45.99L489.54 34.82C492 33.31 497.16 25.61 499.01 24.75C501.11 23.77 500.9 25.21 501.68 25.81Z" fill="white"/>
</g>
<defs>
<clipPath id="clip0_1159_1405">
<rect width="1059" height="169" fill="white"/>
</clipPath>
</defs>
</svg>
