<svg width="860" height="248" viewBox="0 0 860 248" fill="none" xmlns="http://www.w3.org/2000/svg">
<path d="M130 138V96H94L33.29 183.74L31.01 185C29.56 153.08 29.18 120.92 31.53 89.03C56.59 69.93 85.5 55.67 113.3 40.77C114.97 39.76 116.24 39.95 118.02 40.44C122.76 41.74 134.89 48.78 140.03 51.49C152.29 57.94 164.2 65.31 176.01 72.53L130 138.01V138Z" fill="white"/>
<path d="M137.5 178L200.99 89C200.21 93.62 201.83 98.13 202.04 102.46C203.08 124.17 203.33 152.96 202.04 174.55C201.81 178.38 201 182.2 200.49 186C174.24 203.88 146.29 219.2 117.99 233.59L114.31 233.25L57.04 201.96L102 136.01V176.51L103.5 178.01H137.5V178Z" fill="white"/>
<path d="M665.5 99C666.34 99.13 671.56 101.26 672.68 101.82C685.67 108.31 686.61 122.98 675.51 132.01C673.92 133.3 671.42 133.36 671.01 134.99C688.95 138.33 690.88 163.29 674.9 171.4C673.57 172.07 665.34 175 664.5 175H622V99C635.26 100.47 652.77 97.02 665.5 99ZM660.5 113C654.74 111.78 645.24 113.9 639 113V129H659.5C659.74 129 663.58 126.93 663.75 126.75C667.2 123.06 665.94 114.15 660.5 113ZM639 161H659.5C665.15 161 669.88 153.68 667.47 148.02C667.04 147.02 662.27 143 661.5 143H639V161Z" fill="white"/>
<path d="M423.9 98.1L443.5 161.99L462.47 98.97L473.04 98.45L473.83 99.66L493.99 161.99L512.16 99.65C514.01 96.52 519.76 98.48 523.01 98L498.05 174.54L486.89 174.42L467.52 113.99L448.91 174.89H437.11L413.01 98L423.91 98.1H423.9Z" fill="white"/>
<path d="M796.8 97.29C807.68 96.53 822.95 100.83 829.03 110.51L820.46 122.01C812.01 115 804.4 109.76 793 113.52C772.46 120.28 772.77 153.6 793.95 159.55C804.43 162.49 812.18 158.1 820.35 152.09L829.97 162.52C805.38 189 760.93 174.83 760.26 137.24C759.89 116.37 775.96 98.75 796.79 97.31L796.8 97.29Z" fill="white"/>
<path d="M263 98L274.48 99.02L316.99 157L316.25 99.46C316.71 96.89 324.9 98.35 327 98V175L315.43 174.07L274 117V175H263V98Z" fill="white"/>
<path d="M400 108H358V131H395V141H358V165H401V175H347V98H398.5C401.24 100.38 399.63 104.71 400 108Z" fill="white"/>
<path d="M584.93 104.09L581.92 113.92C575.98 112.95 571.48 109.1 565.25 108.25C556.23 107.02 541.52 108.96 546.77 121.74C549.8 129.12 569.96 132.38 577.06 136.44C590.98 144.39 590.46 163.42 576.92 171.41C561.32 180.62 543.61 175.1 530.15 164.83L534.52 154.99C542.29 161.21 550.21 165.64 560.51 165.43C569.2 165.25 577.77 160.72 574.8 150.7C571.26 138.78 535.56 142.69 533.97 120.54C532.07 94 568.36 93.36 584.93 104.1V104.09Z" fill="white"/>
<path d="M756 99V113H734.5C733.07 113.88 733.12 114.99 732.95 116.45C731.51 128.68 734.09 143.47 734.09 155.51C734.09 161.54 731.95 168.56 733 175.01H717V113.01H694V99.01H756V99Z" fill="white"/>
</svg>
