<svg width="2048" height="706" viewBox="0 0 2048 706" fill="none" xmlns="http://www.w3.org/2000/svg">
<path d="M551.77 201.24C552.68 202.53 554.74 224 554.99 227.51C558.75 280.55 550.15 339.54 530.47 388.97C498.33 469.68 432.92 534.04 355.5 571.93C285.15 537.66 223.51 481.37 190 410.01C191.02 409.1 210.21 410.7 213.5 410.51C214.32 410.46 215.39 409.16 216.52 409.08C252.65 406.5 288.02 398.41 321.99 386.02C322.39 399.67 310.76 425.68 330.18 430.33C337.44 432.07 367.32 431.93 375.5 431.02C380.15 430.5 387.11 426.75 388.55 422.07C389.9 417.7 388.48 404.83 387.99 399.52C386.66 385.05 383.61 370.52 382.01 356.07C445 319.71 499.17 257.32 509 183.01L551.76 201.25L551.77 201.24Z" fill="white"/>
<path d="M489.99 183C482.7 242.31 441.92 291.49 395.49 325.99C394.72 322.09 398.36 317.89 399.47 313.97C409.24 279.52 378.68 248.17 343.96 256.46C305.91 265.55 297.1 316.72 329.01 338.7L325.76 364.76C301.13 374.69 275.43 382.26 249.18 386.68C233.4 389.34 215.52 391.58 199.54 392.04C195.12 392.17 182.05 393.07 179.56 389.94C155.95 330.41 148.11 263.89 157.98 200.48L206.59 179.01C251.82 195.88 296 184.36 330.02 151.52C333.23 148.43 335.44 142.61 340.44 141.94C343.97 141.47 371.01 141.61 372.98 142.5C400.29 176.99 446.75 195.37 489.99 182.99V183Z" fill="white"/>
<path d="M1404 247.5C1404.09 247.17 1405.55 245.73 1406.02 245.52C1432.34 245.84 1460.24 243.33 1486.55 244.96C1549.25 248.85 1566.98 299.37 1559.88 355.37C1554.21 400.11 1532.29 431.03 1483.55 429.04C1459.57 426.86 1430.86 431.8 1407.46 429.04C1406 428.87 1404.89 428.92 1404.01 427.49V247.49L1404 247.5ZM1443 396H1485.5C1490.44 396 1501.39 391.17 1505.33 387.83C1525.38 370.86 1525.56 311.8 1510 291.5C1504.03 283.71 1493.45 278 1483.5 278H1443V396Z" fill="white"/>
<path d="M797 306H759C753.09 269.26 703.24 263.43 683.77 292.27C670.31 312.21 669.46 350.42 678.23 372.26C694.38 412.46 751.29 409.16 758.99 366H796.99C787.89 421.68 734.85 445.44 683.74 425.75C631.58 405.65 624.96 328.56 646.5 284.02C677.57 219.78 789.8 230.39 796.98 306H797Z" fill="white"/>
<path d="M1074 412V480H1040V294H1073V313C1079.57 303.73 1085.14 295.68 1096.56 292.06C1121.64 284.1 1150.97 295.36 1161.86 319.65C1179.35 358.65 1170.8 427.29 1118.37 431.88C1096.6 433.78 1090.14 428.28 1076.82 413.69C1075.93 412.71 1075.93 411.56 1074 412.01V412ZM1098.76 319.26C1063 324.07 1060.96 408.6 1109.42 401.91C1144.5 397.07 1144.29 313.13 1098.76 319.26Z" fill="white"/>
<path d="M1568.5 337C1567.69 336.76 1567.12 335.56 1567.05 334.6C1566.52 326.87 1573.86 312.39 1579.03 306.53C1597.81 285.24 1657.45 281.06 1674.98 303.52C1690.55 323.47 1679.45 384.63 1683.09 411.41C1683.38 413.53 1684.36 416.17 1685.55 417.95C1688.26 421.99 1693.27 421.4 1690.56 428.07L1652.66 428.84C1649.19 427.65 1648.89 417.04 1647.5 414.01C1617.41 449.1 1553.66 434.13 1564.27 380.78C1572.29 340.43 1613.18 352.29 1639.97 342.48C1650.74 338.54 1648.62 324.46 1639.24 320.27C1631.33 316.74 1614.13 316.66 1607.99 323.5C1604.54 327.34 1604.75 333.21 1601.5 337.01H1568.5V337ZM1647 363C1633.18 373.04 1599.17 366.27 1599.01 389.49C1598.83 414.65 1635.85 410.07 1644.18 390.67C1644.73 389.4 1647 383.19 1647 382.49V362.99V363Z" fill="white"/>
<path d="M1854.5 293L1883.01 391L1911 293H1950L1894.76 451.26C1882.97 480.44 1866.54 488.51 1835 482V452C1848.29 455.83 1864.43 450.48 1863.94 434.61L1815 293H1854.5Z" fill="white"/>
<path d="M1308.79 290.29C1360.85 284.98 1391.13 319.78 1386.98 370.48C1383.18 416.82 1341.7 440.72 1298.21 429.28C1229.59 411.23 1234.58 297.86 1308.79 290.29ZM1313.78 319.28C1275.56 323.83 1278.39 396.77 1310.74 401.76C1331.78 405.01 1346.39 396.02 1350.56 375.06C1355.93 348.07 1347.4 315.28 1313.78 319.28Z" fill="white"/>
<path d="M935 294L963.01 393L992.5 294H1028L979.02 436.52C971.91 453.87 968.4 474.43 948.22 480.72C937.31 484.12 925.98 483.59 915 481V453C928.93 456.93 943.75 451.18 944.97 435.62L896 294H935Z" fill="white"/>
<path d="M1226 257V294H1248V318H1226V397.5C1226 403.62 1242.11 405.29 1246.54 403.24L1248 404.5V429C1232.91 429.77 1204.63 432.99 1195.16 418.34C1194.59 417.46 1192 411.94 1192 411.5V319.5L1190.5 318H1173V294H1190.5L1192 292.5V257H1226Z" fill="white"/>
<path d="M1768 429V248.5C1768 247.93 1767.27 245 1769.5 245H1802.5L1804 246.5V426.5C1804 426.68 1801.68 429 1801.5 429H1768Z" fill="white"/>
<path d="M892 326C879.22 323.38 860.6 326.89 853.16 338.66C851.88 340.69 849 348.5 849 350.5V428H814V294H847V316C849.97 316.26 850.57 311.02 852.18 308.68C858.48 299.51 868.09 291.47 879.61 290.11C883.13 289.7 889.42 289.14 892 291.5V326Z" fill="white"/>
<path d="M1742 293V427.5L1740.5 429H1706V293H1742Z" fill="white"/>
<path d="M1970.76 175.26C2042.31 165.58 2044.26 270.09 1979.5 270.08C1921.03 270.08 1916.38 182.61 1970.76 175.26ZM1975.77 182.28C1924.46 187.18 1930.56 265.22 1982.48 261.98C2034.27 258.75 2029.03 177.2 1975.77 182.28Z" fill="white"/>
<path d="M1706 278V244.5L1707.5 243H1740.5L1742 244.5V276.5L1740.5 278H1706Z" fill="white"/>
<path d="M1162 559C1172.25 554.59 1199 560.2 1189 575.5C1187.43 577.91 1184.51 578.89 1183.01 580.99C1190.57 582.04 1194.38 590.21 1191.69 597.19C1187.42 608.26 1171.62 607.15 1162 606V559ZM1168.99 578.01C1188.34 581.5 1189.55 560.45 1169.93 563.44L1168.99 578.01ZM1169 601C1176.41 601.09 1185.08 602.12 1185.08 592.5C1185.08 582.88 1176.54 583.81 1169 584V601Z" fill="white"/>
<path d="M1786 571L1791.07 571.43L1792.01 576C1798.22 569 1807.45 568.89 1812.5 576.98C1817.46 566.81 1835 570.49 1835 581.5V606C1832.85 605.88 1828.96 606.86 1828.14 604.36C1826.82 598.34 1829.84 584.09 1827.07 579.43C1823.59 573.57 1814 577.27 1814 581.5V606H1807V581.5C1807 579.99 1803.1 576.46 1801.29 576.18C1788.63 574.24 1794.27 597.44 1792.86 604.36C1792.04 606.86 1788.15 605.88 1786 606V571Z" fill="white"/>
<path d="M927 572.5L928.61 571.09L932.08 571.42L933.5 575.99C938.83 568.83 949.32 568.71 953.5 576.98C957.66 570.63 967.85 567.94 973.03 574.47C973.71 575.32 976.01 579.88 976.01 580.49V605.99H970.01V584.49C970.01 584.02 968 578.52 967.51 578C963.61 573.83 955.01 577.94 955.01 582.49V605.99C952.86 605.87 948.97 606.85 948.15 604.35C946.94 598.87 949.92 581.52 946.5 578.01C942.48 573.88 934.01 577.92 934.01 582.49V605.99H927.01V572.49L927 572.5Z" fill="white"/>
<path d="M1074.79 557.2C1104.48 554.85 1106.19 607.03 1075.51 607.07C1047.82 607.11 1046.19 559.46 1074.79 557.2ZM1066.34 597.66C1067.22 598.54 1070.53 600.52 1071.71 600.79C1096.36 606.35 1096.87 560.95 1074.5 562.96C1059.56 564.3 1057.29 588.56 1066.34 597.67V597.66Z" fill="white"/>
<path d="M836 558V578H858V558H865V606H858V584H836V606H829V558H836Z" fill="white"/>
<path d="M1577 564V578H1594.5C1596.48 578 1596.49 584 1594.5 584H1577V600H1596.5L1598 606H1571.5L1570 604.5V559.5L1571.5 558H1595.5C1597.49 558 1597.48 564 1595.5 564H1577Z" fill="white"/>
<path d="M726 556V576C731.5 569.92 741.59 568.34 746.46 576.04C747.07 577.01 749 581.79 749 582.5V606H742V582.5C742 582.21 739.55 578.03 738.95 577.56C734.65 574.22 726 578.55 726 582.5V606H719V556H726Z" fill="white"/>
<path d="M1399 556V576C1404.56 570.13 1413.65 568.28 1419.01 575.49C1419.71 576.43 1422 580.81 1422 581.5V606H1415V581.5C1415 574.51 1399 574.73 1399 583.5V606C1396.57 605.93 1393.62 606.76 1392 604.5V556H1399Z" fill="white"/>
<path d="M1321 556V586C1327.94 581.03 1330.92 568.77 1340.99 571.01C1342.88 572.67 1328.25 582.96 1329.2 586.35L1343 605.99C1340.65 605.74 1337.03 606.71 1335.01 605.5C1333.24 604.44 1325.14 590.03 1323.51 590.02C1318.9 593.61 1321.75 600.81 1321.02 606.01H1314.01V556H1321.01H1321Z" fill="white"/>
<path d="M1750.73 571.24C1777.39 566.3 1778.26 604.91 1756.38 606.96C1734.91 608.97 1731.89 574.73 1750.73 571.24ZM1752.72 576.19C1742.92 578.35 1742 599.3 1752.56 600.94C1770.49 603.73 1767.83 572.86 1752.72 576.19Z" fill="white"/>
<path d="M1659.73 571.24C1689.2 565.79 1685.6 613.19 1659.18 606.32C1642.2 601.9 1643.36 574.27 1659.73 571.24ZM1661.74 576.21C1650.69 578.34 1651.41 599.34 1661.56 600.94C1678.22 603.56 1677.47 573.17 1661.74 576.21Z" fill="white"/>
<path d="M1240.73 571.24C1267.39 566.3 1268.26 604.91 1246.38 606.96C1224.91 608.97 1221.89 574.73 1240.73 571.24ZM1242.72 576.19C1232.92 578.35 1232 599.3 1242.56 600.94C1260.49 603.73 1257.83 572.86 1242.72 576.19Z" fill="white"/>
<path d="M891.73 571.23C918.2 565.78 919.83 605.38 897.36 606.93C874.89 608.48 874.13 574.85 891.73 571.23ZM889.32 598.69C891.58 601.21 896.14 601.51 899.29 600.78C910.04 598.31 908.45 571.59 892.94 576.45C885.08 578.91 884.45 593.27 889.31 598.69H889.32Z" fill="white"/>
<path d="M997 590C996 603.13 1008.5 601.91 1017.99 600L1017.87 604.86C1002.68 611.22 987.74 603.23 990.09 585.58C991.9 571.98 1009.68 564.84 1017.46 576.04C1018.95 578.19 1022.62 590 1019.5 590H997ZM1014 585C1013.9 572.58 997.33 572.75 997 585H1014Z" fill="white"/>
<path d="M1509 606C1506.85 605.88 1502.96 606.86 1502.14 604.36L1502.44 571.94L1507.42 570.93L1509.5 574.97C1515.55 569.62 1524.52 568.76 1529.46 576.04C1529.96 576.78 1532 581.1 1532 581.5V606H1525V581.5C1525 577.18 1516.5 574.63 1512.46 577.97C1511.8 578.51 1509 583.18 1509 583.5V606Z" fill="white"/>
<path d="M793 590H769C769.84 602.59 779.24 602.32 789.42 600.11C794.82 605.19 786.7 606.71 782.48 607C755.85 608.81 757.74 571.4 778.48 570.94C789.95 570.68 793.74 579.76 793 590.01V590ZM787 585C786.44 572.51 769.79 572.81 770 585H787Z" fill="white"/>
<path d="M1695 573.5C1695 573.1 1693.18 572.16 1695.57 571.07L1699.38 571.12L1701.49 576C1705.55 570.14 1715.41 568.99 1720.42 574.08C1721.19 574.87 1724 579.8 1724 580.5V606L1717.44 605.06C1715.14 598.2 1721.48 576.25 1710.53 576.1C1696.65 575.91 1704.05 596.82 1701.57 605.06L1695.01 606C1694.95 595.18 1695.1 584.33 1695.01 573.5H1695Z" fill="white"/>
<path d="M1463 606H1456.99L1456.5 602C1448.02 612.86 1430.44 603.69 1437.58 591.08C1440.71 585.54 1450.1 583.52 1456 583.99C1457.12 574.15 1447.13 574.55 1440.52 578L1439.1 573.09C1444.94 570.68 1454.55 569.13 1459.42 574.07C1460.19 574.86 1463 579.79 1463 580.49V605.99V606ZM1456 589C1443.7 584.76 1437.28 603.13 1449.27 601.79C1456.49 600.98 1456.54 594.85 1456 589Z" fill="white"/>
<path d="M1862.01 597C1863.43 596.88 1863.58 595.53 1864.04 594.54C1866.12 590 1869.47 574.41 1871.49 571.99C1872.94 570.25 1876.02 571.17 1878 571.01C1873.55 583.55 1866.33 612.37 1854.96 619.46C1850.03 622.53 1848.39 621.82 1848.47 615.95C1852.82 614.14 1859.3 608.77 1858.99 603.58C1858.67 598.04 1849.36 582.02 1847.49 575.01C1847.13 573.66 1846.78 572.42 1847 571.01C1849.04 571.13 1852.07 570.28 1853.51 572C1856.47 575.54 1860.19 591.81 1862.02 597H1862.01Z" fill="white"/>
<path d="M694 564V606H687V564H673V558H707.5C708.12 558 708.97 559.63 709.06 560.5C709.69 566.55 697.99 563.16 694 564Z" fill="white"/>
<path d="M1113 577H1108.99V570.99L1112.89 570.9C1113.66 562.54 1116.85 554.65 1126.5 554.91C1131.41 555.04 1131.23 556.3 1131 560.99L1122.39 561.89L1119.99 570.99L1128.04 571.44L1128.91 575.39C1128.03 578.07 1122.26 576.73 1120 576.99V605.99C1117.57 605.92 1114.62 606.75 1113 604.49V576.99V577Z" fill="white"/>
<path d="M1301.01 572.01L1299.91 576.9C1289.1 574.87 1280.42 576.8 1280.95 589.54C1281.48 602.28 1289.81 602.48 1299.99 600.01L1301.01 605C1264.59 617.36 1264.72 561.61 1301.01 572.02V572.01Z" fill="white"/>
<path d="M1379 572L1377.99 578C1353 567.57 1351.48 609.1 1377.98 599.99L1378.99 604.97C1342.9 616.94 1343 562.2 1379.01 572H1379Z" fill="white"/>
<path d="M1636 572L1634.99 578C1610 567.57 1608.48 609.1 1634.98 599.99L1635.99 604.97C1599.9 616.94 1600 562.2 1636.01 572H1636Z" fill="white"/>
<path d="M1214 556H1207V606H1214V556Z" fill="white"/>
<path d="M569.79 107.21C584.64 105.72 596.21 123.27 586.52 136.02C573.36 153.33 546.53 138.01 554.8 118.3C557.24 112.49 563.49 107.84 569.79 107.21ZM570.75 110.25C551.15 111.32 551.58 143.71 575.44 139.94C592.64 137.22 589.67 109.22 570.75 110.25Z" fill="white"/>
<path d="M1486 606H1479V572.5C1479 570.46 1486 570.46 1486 572.5V606Z" fill="white"/>
<path d="M1485.74 559.26C1489.58 563.11 1483.76 568.66 1479.46 565.01C1476.05 562.11 1481.77 555.28 1485.74 559.26Z" fill="white"/>
<path d="M1964 200.5C1964.28 199.51 1966.35 198.25 1967.53 198.03C1970.82 197.4 1982.78 197.65 1986.26 198.24C2002.05 200.95 2002.17 222.51 1987.98 227.53L2000 250C1998.24 249.86 1996.19 250.33 1994.5 250.01C1991.21 249.39 1982.94 233.01 1980.85 229.17L1971.01 229.01V248.51L1965.69 250.06C1965.04 249.84 1964.01 247.78 1964.01 247.51V200.51L1964 200.5ZM1971 222H1985.5C1990.78 222 1992.95 211.04 1989.47 207.03C1986.59 203.7 1974.36 202.5 1971 205.5V222Z" fill="white"/>
<path d="M566 116C575.05 113.9 585.44 120.63 574.98 127.52L580 135.99C574.75 137.09 574.38 128.69 570.51 127.99C567.26 127.4 569.9 135.15 569 136.01H566V116ZM569.01 126L575.58 124.08V119.93L569 119V126H569.01Z" fill="white"/>
</svg>
