<svg width="353" height="222" viewBox="0 0 353 222" fill="none" xmlns="http://www.w3.org/2000/svg">
<path d="M339.983 216.422C340.214 216.431 347.174 213.897 346.979 214.286C347.165 214.269 347.391 213.09 347.527 211.889C351.322 162.077 348.308 112.857 350.237 60.946C350.664 49.48 352.487 14.9584 350.077 14.2224C332.121 8.73859 310.461 7.10791 286.389 8.18025C274.425 8.71322 260.251 16.2079 248.413 13.5116C243.153 12.3134 236.378 10.4857 231.456 9.66193C214.917 6.89381 198.639 1.99792 181.907 2.96343C175.667 3.32347 167.16 3.01252 155.53 3.14924C151.467 3.197 150.912 3.57164 138.589 3.29581C126.265 3.01999 102.899 1.52425 90.8103 1.86089C73.6606 2.33847 56.6336 7.4987 39.5445 7.0832C24.6856 6.72192 21.8847 7.09613 19.652 9.93004C17.3536 12.8474 12.9322 11.7032 12.1248 18.8618C11.1599 27.4158 10.3541 35.3485 9.78475 41.9595C9.28675 47.7418 7.73982 70.9448 6.4725 99.7145C5.76464 115.784 4.40183 145.837 4.0931 161.675C3.62704 185.583 0.475649 202.435 3.72447 206.902C4.76144 208.328 5.98612 209.068 7.08589 209.419C9.24567 210.108 12.4355 211.918 18.8766 212.272C30.8581 212.931 39.472 214.132 41.942 214.359C45.6546 214.7 48.3232 215.718 51.642 215.932C59.2628 216.423 64.8295 217.456 75.2763 217.632C85.0032 217.796 103.192 218.233 113.335 217.29C127.365 215.985 141.117 215.387 155.071 216.309C162.236 216.782 167.86 216.3 170.058 216.081C181.522 214.939 192.577 215.378 203.964 216.988C219.086 219.127 234.103 220.514 249.333 220.329C253.243 220.281 257.082 219.72 260.002 219.539C286.748 217.88 313.277 215.396 339.983 216.422Z" fill="white" stroke="#1A2375" stroke-width="3" stroke-linecap="round"/>
</svg>
