<svg width="350" height="223" viewBox="0 0 350 223" fill="none" xmlns="http://www.w3.org/2000/svg">
<path d="M340.208 209.583C340.439 209.583 347.296 206.783 347.116 207.179C347.302 207.155 347.482 205.968 347.572 204.763C349.45 154.841 344.548 105.774 344.481 53.8271C344.467 42.3532 344.962 7.78696 342.526 7.14413C324.373 2.35415 302.666 1.55679 278.653 3.55312C266.718 4.54534 252.842 12.579 240.91 10.3394C235.608 9.34426 228.767 7.77821 223.817 7.1441C207.185 5.0134 190.73 0.746486 174.047 2.3541C167.826 2.95359 159.314 2.96967 147.698 3.55308C143.639 3.75691 143.099 4.15258 130.774 4.35041C118.449 4.54824 95.0424 3.95127 82.976 4.75207C65.8572 5.88814 49.041 11.6987 31.9486 11.94C17.0868 12.1498 14.3024 12.6314 12.1802 15.549C9.99549 18.5525 5.53342 17.579 5.00159 24.7633C4.36609 33.3481 3.8656 41.3058 3.55066 47.9339C3.27518 53.731 2.62079 76.9763 2.45966 105.773C2.36966 121.858 2.16242 151.941 2.46237 167.78C2.91513 191.688 0.413513 208.649 3.83154 212.988C4.92252 214.373 6.17474 215.065 7.28717 215.374C9.47183 215.979 12.7288 217.665 19.1787 217.772C31.1767 217.97 39.8304 218.839 42.3073 218.971C46.0303 219.169 48.736 220.084 52.0606 220.17C59.6947 220.368 65.2969 221.186 75.7428 220.961C85.4688 220.751 103.661 220.489 113.76 219.157C127.73 217.314 141.448 216.187 155.427 216.573C162.606 216.771 168.207 216.073 170.395 215.769C181.807 214.188 192.87 214.202 204.311 215.374C219.504 216.93 234.563 217.739 249.774 216.968C253.68 216.771 257.494 216.063 260.406 215.769C287.067 213.084 313.481 209.583 340.208 209.583Z" fill="white" stroke="#1A2375" stroke-width="3" stroke-linecap="round"/>
</svg>
