<svg width="466" height="70" viewBox="0 0 466 70" fill="none" xmlns="http://www.w3.org/2000/svg">
<g filter="url(#filter0_d_2126_189)">
<g clip-path="url(#clip0_2126_189)">
<mask id="path-1-inside-1_2126_189" fill="white">
<path d="M0.0212133 8C0.0228462 3.58172 3.60589 0.00132373 8.02417 0.00295663L457.024 0.168897C461.442 0.17053 465.023 3.75358 465.021 8.17185L465.003 57.7412C465.001 62.1594 461.418 65.7398 457 65.7382L7.99993 65.5723C3.58165 65.5706 0.00126066 61.9876 0.00289356 57.5693L0.0212133 8Z"/>
</mask>
<path d="M0.0212133 8C0.0228462 3.58172 3.60589 0.00132373 8.02417 0.00295663L457.024 0.168897C461.442 0.17053 465.023 3.75358 465.021 8.17185L465.003 57.7412C465.001 62.1594 461.418 65.7398 457 65.7382L7.99993 65.5723C3.58165 65.5706 0.00126066 61.9876 0.00289356 57.5693L0.0212133 8Z" fill="#D5A039"/>
<path d="M427.106 2.45381C426.437 2.94692 424.525 2.39862 423.933 2.56537C421.787 3.83034 419.965 5.38869 417.053 5.92217C413.296 4.62306 420.082 3.10314 421.751 2.45964C422.566 2.14549 425.385 0.667591 425.991 0.770806C426.995 0.94196 427.92 1.85346 427.106 2.45381Z" fill="#9E813A"/>
<path d="M93.7937 5.96581C93.771 6.00403 93.5054 6.0276 93.4236 6.15366C93.3203 6.313 92.4944 8.32988 91.9039 7.66092C91.7377 7.47263 91.8856 7.05259 91.1551 7.13854C91.7234 8.8173 91.4919 8.20834 89.8441 8.60531C89.3461 8.7253 88.4791 9.44776 87.7652 8.72633C87.3014 8.25765 88.9794 7.55774 89.1783 7.38604C89.3862 7.20671 89.8808 6.24637 90.2123 6.06346C90.3593 5.98239 90.9007 6.03232 91.2917 5.87905C91.8821 5.64763 92.5582 4.80431 93.2859 4.75304C94.6181 4.65918 94.051 5.53206 93.7937 5.96581Z" fill="#907433"/>
<path d="M86.1223 4.93911C86.1811 4.9608 86.8437 5.62255 86.8636 5.66388C87.3813 6.74074 85.9658 6.36047 85.1679 6.58261C84.3008 6.82401 80.2775 9.84004 81.1541 7.2016C82.0601 6.87417 85.1539 4.58199 86.1223 4.93911Z" fill="#8D7233"/>
<path d="M426.857 6.64221C428.631 6.52467 428.127 8.07452 427.056 8.53474C426.087 8.95136 422.69 8.21296 423.532 7.56123C423.647 7.47217 426.609 6.65861 426.857 6.64221Z" fill="#9D7F38"/>
<path d="M225.358 41.3132C225.583 41.4339 225.741 41.9103 226.18 41.7201C226.215 41.7051 226.182 41.1113 226.691 41.4143C226.755 41.4526 226.999 42.4808 226.941 42.5252C225.878 42.3579 225.524 42.9987 224.69 42.1314C224.095 41.5124 223.894 40.5275 225.358 41.3132Z" fill="#A17D34"/>
<path d="M54.4518 9.01963C52.8698 9.13154 52.5275 8.30132 52.7203 7.44118C54.4394 7.54894 55.0096 7.94068 54.4518 9.01963Z" fill="#9B7732"/>
<path d="M273.318 27.1963C273.375 27.2123 273.391 27.4212 273.542 27.4712C273.992 27.6203 274.684 27.5855 274.867 27.9473C274.096 27.9386 273.426 28.049 272.733 27.7977C271.725 27.4326 272.373 26.9315 273.318 27.1963Z" fill="#85672C"/>
<path d="M392.149 61.0737C391.48 61.5668 389.568 61.0185 388.976 61.1852C386.83 62.4502 385.008 64.0086 382.096 64.542C378.34 63.2429 385.125 61.723 386.794 61.0795C387.609 60.7654 390.428 59.2875 391.034 59.3907C392.038 59.5618 392.963 60.4733 392.149 61.0737Z" fill="#9E813A"/>
<path d="M391.9 65.2621C393.674 65.1445 393.17 66.6944 392.099 67.1546C391.13 67.5712 387.733 66.8328 388.575 66.1811C388.69 66.092 391.653 65.2785 391.9 65.2621Z" fill="#9D7F38"/>
<path d="M386.423 47.8279C386.48 47.8438 386.497 48.0528 386.647 48.1028C387.097 48.2519 387.789 48.2171 387.972 48.5789C387.201 48.5701 386.531 48.6806 385.838 48.4293C384.831 48.0642 385.479 47.5631 386.423 47.8279Z" fill="#85672C"/>
<path d="M26.5451 6.28315L26.545 -0.379395C28.5282 -0.345709 31.9435 -0.608097 32.5212 0.981287C33.4932 3.65558 30.4628 5.71269 26.5451 6.28315Z" fill="#D1A143"/>
<circle cx="454.916" cy="55.4507" r="2.71265" transform="rotate(0.0211753 454.916 55.4507)" fill="white"/>
<rect x="454.239" y="54.0942" width="1.35632" height="2.71265" transform="rotate(0.0211753 454.239 54.0942)" fill="#B7B5B5"/>
<rect x="456.273" y="54.7729" width="1.35632" height="2.71265" transform="rotate(90.0212 456.273 54.7729)" fill="#B7B5B5"/>
<circle cx="454.733" cy="9.88064" r="2.71265" transform="rotate(0.0211753 454.733 9.88064)" fill="white"/>
<rect x="454.055" y="8.52417" width="1.35632" height="2.71265" transform="rotate(0.0211753 454.055 8.52417)" fill="#B7B5B5"/>
<rect x="456.09" y="9.20288" width="1.35632" height="2.71265" transform="rotate(90.0212 456.09 9.20288)" fill="#B7B5B5"/>
<circle cx="9.89524" cy="54.8972" r="2.71265" transform="rotate(0.0211753 9.89524 54.8972)" fill="white"/>
<rect x="9.21753" y="53.5408" width="1.35632" height="2.71265" transform="rotate(0.0211753 9.21753 53.5408)" fill="#B7B5B5"/>
<rect x="11.252" y="54.2195" width="1.35632" height="2.71265" transform="rotate(90.0212 11.252 54.2195)" fill="#B7B5B5"/>
<circle cx="9.71213" cy="9.32718" r="2.71265" transform="rotate(0.0211753 9.71213 9.32718)" fill="white"/>
<rect x="9.03442" y="7.9707" width="1.35632" height="2.71265" transform="rotate(0.0211753 9.03442 7.9707)" fill="#B7B5B5"/>
<rect x="11.0688" y="8.64941" width="1.35632" height="2.71265" transform="rotate(90.0212 11.0688 8.64941)" fill="#B7B5B5"/>
</g>
<path d="M8.02417 0.00295663L8.02306 3.00296L457.023 3.1689L457.024 0.168897L457.025 -2.8311L8.02528 -2.99704L8.02417 0.00295663ZM465.021 8.17185L462.021 8.17074L462.003 57.7401L465.003 57.7412L468.003 57.7423L468.021 8.17296L465.021 8.17185ZM457 65.7382L457.001 62.7382L8.00104 62.5723L7.99993 65.5723L7.99882 68.5723L456.999 68.7382L457 65.7382ZM0.00289356 57.5693L3.00289 57.5704L3.02121 8.00111L0.0212133 8L-2.97879 7.99889L-2.99711 57.5682L0.00289356 57.5693ZM7.99993 65.5723L8.00104 62.5723C5.23962 62.5712 3.00187 60.3318 3.00289 57.5704L0.00289356 57.5693L-2.99711 57.5682C-2.99935 63.6433 1.92368 68.57 7.99882 68.5723L7.99993 65.5723ZM465.003 57.7412L462.003 57.7401C462.002 60.5015 459.762 62.7392 457.001 62.7382L457 65.7382L456.999 68.7382C463.074 68.7404 468.001 63.8174 468.003 57.7423L465.003 57.7412ZM457.024 0.168897L457.023 3.1689C459.784 3.16992 462.022 5.40932 462.021 8.17074L465.021 8.17185L468.021 8.17296C468.023 2.09783 463.1 -2.82886 457.025 -2.8311L457.024 0.168897ZM8.02417 0.00295663L8.02528 -2.99704C1.95015 -2.99929 -2.97654 1.92376 -2.97879 7.99889L0.0212133 8L3.02121 8.00111C3.02223 5.23968 5.26164 3.00194 8.02306 3.00296L8.02417 0.00295663Z" fill="#FFE6B7" mask="url(#path-1-inside-1_2126_189)"/>
</g>
<defs>
<filter id="filter0_d_2126_189" x="-0.00012207" y="0" width="465.024" height="69.7412" filterUnits="userSpaceOnUse" color-interpolation-filters="sRGB">
<feFlood flood-opacity="0" result="BackgroundImageFix"/>
<feColorMatrix in="SourceAlpha" type="matrix" values="0 0 0 0 0 0 0 0 0 0 0 0 0 0 0 0 0 0 127 0" result="hardAlpha"/>
<feOffset dy="4"/>
<feComposite in2="hardAlpha" operator="out"/>
<feColorMatrix type="matrix" values="0 0 0 0 0 0 0 0 0 0 0 0 0 0 0 0 0 0 0.1 0"/>
<feBlend mode="normal" in2="BackgroundImageFix" result="effect1_dropShadow_2126_189"/>
<feBlend mode="normal" in="SourceGraphic" in2="effect1_dropShadow_2126_189" result="shape"/>
</filter>
<clipPath id="clip0_2126_189">
<path d="M0.0212133 8C0.0228462 3.58172 3.60589 0.00132373 8.02417 0.00295663L457.024 0.168897C461.442 0.17053 465.023 3.75358 465.021 8.17185L465.003 57.7412C465.001 62.1594 461.418 65.7398 457 65.7382L7.99993 65.5723C3.58165 65.5706 0.00126066 61.9876 0.00289356 57.5693L0.0212133 8Z" fill="white"/>
</clipPath>
</defs>
</svg>
